<svg xmlns="http://www.w3.org/2000/svg" width="23" height="23" viewBox="0 0 23 23" fill="none">
<path fill-rule="evenodd" clip-rule="evenodd" d="M15.7897 1.28627H19.0563C20.4079 1.28627 21.5042 2.39216 21.5042 3.75645V7.05037C21.5042 8.41362 20.4079 9.52055 19.0563 9.52055H15.7897C14.4372 9.52055 13.3408 8.41362 13.3408 7.05037V3.75645C13.3408 2.39216 14.4372 1.28627 15.7897 1.28627Z" stroke="#F5F5F5" stroke-width="1.5" stroke-linecap="round" stroke-linejoin="round"/>
<path fill-rule="evenodd" clip-rule="evenodd" d="M3.95307 1.28627H7.21864C8.57118 1.28627 9.66756 2.39216 9.66756 3.75645V7.05037C9.66756 8.41362 8.57118 9.52055 7.21864 9.52055H3.95307C2.60053 9.52055 1.50415 8.41362 1.50415 7.05037V3.75645C1.50415 2.39216 2.60053 1.28627 3.95307 1.28627Z" stroke="#F5F5F5" stroke-width="1.5" stroke-linecap="round" stroke-linejoin="round"/>
<path fill-rule="evenodd" clip-rule="evenodd" d="M3.95307 13.052H7.21864C8.57118 13.052 9.66756 14.1579 9.66756 15.5232V18.8161C9.66756 20.1804 8.57118 21.2863 7.21864 21.2863H3.95307C2.60053 21.2863 1.50415 20.1804 1.50415 18.8161V15.5232C1.50415 14.1579 2.60053 13.052 3.95307 13.052Z" stroke="#F5F5F5" stroke-width="1.5" stroke-linecap="round" stroke-linejoin="round"/>
<path fill-rule="evenodd" clip-rule="evenodd" d="M15.7897 13.052H19.0563C20.4079 13.052 21.5042 14.1579 21.5042 15.5232V18.8161C21.5042 20.1804 20.4079 21.2863 19.0563 21.2863H15.7897C14.4372 21.2863 13.3408 20.1804 13.3408 18.8161V15.5232C13.3408 14.1579 14.4372 13.052 15.7897 13.052Z" stroke="#F5F5F5" stroke-width="1.5" stroke-linecap="round" stroke-linejoin="round"/>
</svg>