<svg xmlns="http://www.w3.org/2000/svg" width="20" height="4" viewBox="0 0 20 4" fill="none">
<path d="M17.3373 3.89187C16.2539 3.89187 15.3738 3.01925 15.3738 1.94675C15.3738 0.874249 16.2539 0 17.3373 0C18.4206 0 19.3008 0.874249 19.3008 1.94675C19.3008 3.01925 18.4206 3.89187 17.3373 3.89187Z" fill="#F5F5F5"/>
<path d="M9.9962 3.89187C8.91284 3.89187 8.03271 3.01925 8.03271 1.94675C8.03271 0.874249 8.91284 0 9.9962 0C11.0796 0 11.9597 0.874249 11.9597 1.94675C11.9597 3.01925 11.0796 3.89187 9.9962 3.89187Z" fill="#F5F5F5"/>
<path d="M2.65465 3.89187C1.57129 3.89187 0.691162 3.01925 0.691162 1.94675C0.691162 0.874249 1.57129 0 2.65465 0C3.73801 0 4.61814 0.874249 4.61814 1.94675C4.61814 3.01925 3.73801 3.89187 2.65465 3.89187Z" fill="#F5F5F5"/>
</svg>